<svg width="1440" height="577" viewBox="0 0 1440 577" fill="none" xmlns="http://www.w3.org/2000/svg">
<g style="mix-blend-mode:screen" opacity="0.07">
<path d="M-170 117.039C-81.8454 96.0765 13.1048 89.4668 100.882 115.528C177.144 138.19 234.53 195.411 297.578 240.734C361.759 287.002 434.812 320.428 515.039 322.317C605.458 324.394 667.563 285.303 744.958 247.344C811.971 214.484 884.835 188.612 960.342 191.067C1055.29 194.089 1141.56 239.601 1234.24 254.898C1323.91 269.628 1409.42 248.666 1485.68 200.321" stroke="white" stroke-width="0.75" stroke-linecap="round" stroke-linejoin="round" stroke-dasharray="0.1 0.1"/>
<path d="M-164.525 141.211C-77.1259 118.738 16.8805 110.429 104.846 134.79C181.109 155.941 239.249 211.652 302.675 255.842C367.234 300.599 440.664 332.515 520.325 332.892C610.178 333.27 671.339 293.234 747.601 254.143C813.67 220.339 885.59 193.333 960.909 194.278C1055.29 195.411 1141.94 239.224 1234.43 252.821C1323.72 265.851 1408.48 243.378 1483.42 194.089" stroke="white" stroke-width="0.75" stroke-linecap="round" stroke-linejoin="round"/>
<path d="M-159.052 165.195C-72.5961 141.211 20.844 131.202 108.621 154.053C184.883 173.693 243.779 228.081 307.771 270.761C372.896 314.196 446.327 344.601 525.798 343.468C615.274 342.335 675.302 301.354 750.432 261.13C815.557 226.193 886.534 198.054 961.474 197.677C1055.48 197.11 1142.5 239.035 1234.62 250.932C1323.72 262.263 1407.53 238.468 1481.15 187.857" stroke="white" stroke-width="0.75" stroke-linecap="round" stroke-linejoin="round"/>
<path d="M-153.577 189.368C-68.0653 163.873 24.8085 152.353 112.586 173.316C188.848 191.445 248.31 244.511 312.868 285.68C378.56 327.605 452.179 356.498 531.084 354.043C619.994 351.211 679.078 309.286 753.075 267.929C817.256 232.047 887.289 202.587 961.852 200.887C1055.29 198.621 1142.69 238.846 1234.62 248.666C1323.53 258.297 1406.4 232.992 1478.89 181.436" stroke="white" stroke-width="0.75" stroke-linecap="round" stroke-linejoin="round" stroke-dasharray="0.1 0.1"/>
<path d="M-148.103 213.54C-63.3458 186.535 28.773 173.316 116.55 192.578C192.812 209.197 253.029 260.941 317.965 300.788C384.034 341.391 458.031 368.774 536.37 364.619C624.902 360.087 682.854 317.407 755.718 274.727C818.955 237.713 888.044 207.119 962.23 204.098C1055.29 200.132 1142.88 238.468 1234.62 246.589C1323.34 254.52 1405.46 227.704 1476.43 175.015" stroke="white" stroke-width="0.75" stroke-linecap="round" stroke-linejoin="round" stroke-dasharray="0.1 0.1"/>
<path d="M-142.629 237.524C-58.816 209.197 32.7365 194.089 120.514 211.652C196.776 226.76 257.748 277.182 323.061 315.518C389.697 354.61 463.694 380.482 541.843 375.005C629.809 368.773 686.817 325.149 758.549 281.337C820.842 243.378 889.176 211.652 962.985 207.119C1055.48 201.454 1143.64 237.902 1235 244.322C1323.34 250.554 1404.7 222.416 1474.36 168.594" stroke="white" stroke-width="0.75" stroke-linecap="round" stroke-linejoin="round"/>
<path d="M-137.154 261.696C-54.2852 231.858 36.7009 215.24 124.289 230.914C200.551 244.511 262.09 293.423 328.159 330.626C395.171 368.396 469.546 392.757 547.129 385.77C634.718 378.027 690.593 333.27 761.192 288.324C822.542 249.232 889.932 216.373 963.363 210.33C1055.48 202.776 1143.82 237.524 1235 242.245C1323.15 246.777 1403.57 217.128 1472.09 162.173" stroke="white" stroke-width="0.75" stroke-linecap="round" stroke-linejoin="round" stroke-dasharray="0.1 0.1"/>
<path d="M-131.868 285.68C-49.7541 254.331 40.4769 236.013 128.065 249.988C204.327 262.074 266.621 309.664 333.067 345.356C400.646 381.615 475.021 404.466 552.415 395.968C639.437 386.525 694.369 341.013 763.835 294.745C824.052 254.898 890.687 220.716 963.741 213.351C1055.29 204.098 1144.01 236.957 1235 239.979C1322.97 242.812 1402.44 211.652 1469.64 155.752" stroke="white" stroke-width="0.75" stroke-linecap="round" stroke-linejoin="round"/>
<path d="M-126.395 309.853C-45.2243 276.993 44.4404 256.975 132.029 269.251C208.291 279.826 271.339 326.094 338.163 360.275C406.12 395.023 480.872 416.363 557.7 406.543C644.345 395.401 698.144 348.945 766.478 301.544C825.751 260.375 891.442 225.249 964.118 216.373C1055.29 205.42 1144.39 236.391 1235 237.524C1322.78 238.657 1401.3 206.175 1467.18 148.954" stroke="white" stroke-width="0.75" stroke-linecap="round" stroke-linejoin="round" stroke-dasharray="0.1 0.1"/>
<path d="M-120.92 334.025C-40.6936 299.655 48.4049 277.937 135.993 288.513C212.255 297.577 275.87 342.523 343.26 375.383C411.783 408.809 486.535 428.638 562.986 417.307C649.064 404.466 701.919 357.253 769.121 308.531C827.45 266.417 892.386 229.97 964.495 219.772C1055.1 207.119 1144.58 236.202 1235 235.635C1322.4 235.069 1400.36 201.076 1464.92 142.911" stroke="white" stroke-width="0.75" stroke-linecap="round" stroke-linejoin="round" stroke-dasharray="0.1 0.1"/>
<path d="M-115.446 358.009C-35.975 322.128 52.1796 298.9 139.957 307.587C216.219 315.141 280.589 358.765 348.356 390.114C417.257 422.029 492.386 440.347 568.46 427.694C654.16 413.342 705.883 364.997 771.952 315.33C829.337 272.083 893.329 234.503 965.25 222.983C1055.48 208.63 1145.15 236.013 1235.38 233.558C1322.59 231.292 1399.6 195.789 1462.84 136.49" stroke="white" stroke-width="0.75" stroke-linecap="round" stroke-linejoin="round" stroke-dasharray="0.1 0.1"/>
<path d="M-109.973 382.182C-31.4452 344.979 56.1431 319.862 143.731 326.849C219.805 332.893 285.119 375.006 353.453 405.221C422.919 435.815 498.237 452.622 573.745 438.27C658.879 422.218 709.658 373.117 774.594 322.128C831.035 277.938 894.084 239.224 965.627 226.193C1055.29 209.952 1145.33 235.636 1235.38 231.481C1322.4 227.515 1398.47 190.69 1460.39 130.258" stroke="white" stroke-width="0.75" stroke-linecap="round" stroke-linejoin="round" stroke-dasharray="0.1 0.1"/>
<path d="M-104.498 406.166C-26.7257 367.452 60.1075 340.635 147.696 345.923C223.769 350.455 289.838 391.247 358.55 419.951C428.394 449.034 503.901 464.331 579.219 448.656C663.976 430.905 713.433 380.86 777.425 328.738C832.923 283.414 895.028 243.567 966.193 229.215C1055.48 211.274 1145.9 235.069 1235.57 229.215C1322.4 223.549 1397.53 185.213 1458.31 123.648" stroke="white" stroke-width="0.75" stroke-linecap="round" stroke-linejoin="round"/>
<path d="M-99.0234 430.338C-22.1949 390.113 64.072 361.597 151.66 365.185C227.734 368.207 294.369 407.676 363.647 434.87C434.057 462.631 509.753 476.417 584.505 459.232C668.884 439.78 717.209 388.791 780.069 335.536C834.622 289.268 895.783 248.099 966.571 232.425C1055.29 212.785 1146.09 234.691 1235.57 226.948C1322.21 219.583 1396.4 179.736 1455.86 117.228" stroke="white" stroke-width="0.75" stroke-linecap="round" stroke-linejoin="round" stroke-dasharray="0.1 0.1"/>
<path d="M-93.5498 454.511C-17.6651 412.775 68.0355 382.748 155.624 384.448C231.697 385.959 299.087 424.106 368.743 449.978C439.531 476.228 515.415 488.503 589.79 469.807C673.603 448.845 720.984 396.912 782.711 342.335C836.132 294.934 896.727 252.632 966.948 235.635C1055.29 214.296 1146.28 234.313 1235.56 224.871C1321.83 215.806 1395.45 174.637 1453.4 110.807" stroke="white" stroke-width="0.75" stroke-linecap="round" stroke-linejoin="round"/>
<path d="M-88.0752 478.494C-12.9456 435.248 72 403.522 159.588 403.522C235.662 403.522 303.807 440.347 373.84 464.708C445.194 489.636 521.268 500.401 595.265 480.194C678.7 457.532 724.948 404.655 785.543 348.944C838.02 300.599 897.671 257.164 967.704 238.657C1055.48 215.429 1147.03 233.747 1235.94 222.605C1322.02 211.84 1394.7 169.161 1451.52 104.386" stroke="white" stroke-width="0.75" stroke-linecap="round" stroke-linejoin="round"/>
<path d="M-82.6006 502.667C-8.41481 457.91 75.9644 424.484 163.553 422.784C239.626 421.273 308.338 456.588 379.126 479.627C451.046 503.045 527.308 512.298 600.739 490.769C683.608 466.408 728.912 412.775 788.374 355.743C839.908 306.265 898.615 261.696 968.27 241.867C1055.48 216.939 1147.41 233.558 1236.13 220.527C1322.02 208.063 1393.75 164.062 1449.25 97.9648" stroke="white" stroke-width="0.75" stroke-linecap="round" stroke-linejoin="round"/>
<path d="M-77.127 526.651C-3.88501 480.383 79.9279 445.257 167.516 441.858C243.59 438.836 313.056 472.829 384.222 494.547C456.52 516.642 532.971 524.385 606.213 501.156C688.704 475.095 732.876 420.518 791.205 362.353C841.795 311.93 899.558 266.04 968.836 244.889C1055.67 218.262 1147.79 232.992 1236.32 218.262C1322.02 203.909 1392.81 158.585 1446.99 91.3555" stroke="white" stroke-width="0.75" stroke-linecap="round" stroke-linejoin="round"/>
<path d="M-71.8408 550.824C0.64606 503.234 83.704 466.219 171.104 461.121C247.177 456.588 317.399 489.259 388.942 509.466C461.806 530.05 538.446 536.282 611.122 511.732C693.047 484.16 736.275 428.639 793.471 369.34C843.117 317.974 900.125 270.95 968.837 248.288C1055.1 219.961 1147.79 232.803 1236.13 216.184C1321.46 200.132 1391.68 153.298 1444.53 85.1235" stroke="white" stroke-width="0.75" stroke-linecap="round" stroke-linejoin="round" stroke-dasharray="0.1 0.1"/>
<path d="M-66.3662 574.996C5.17682 525.896 87.6684 487.371 175.068 480.383C251.141 474.34 322.118 505.689 394.039 524.574C467.281 543.836 544.109 548.369 616.407 522.496C697.955 493.225 740.05 436.759 796.114 376.328C844.816 323.828 900.88 275.672 969.403 251.688C1055.29 221.661 1148.17 232.614 1236.32 214.296C1321.46 196.544 1390.73 148.388 1442.27 78.8916" stroke="white" stroke-width="0.75" stroke-linecap="round" stroke-linejoin="round"/>
<path d="M-60.8926 598.98C9.89538 548.369 91.6319 508.144 179.031 499.457C255.105 491.903 326.648 521.93 399.135 539.304C472.943 557.056 549.96 560.266 621.881 532.883C702.862 501.912 744.014 444.502 798.945 382.937C846.703 329.493 901.824 280.015 969.969 254.709C1055.29 222.794 1148.54 232.048 1236.51 212.03C1321.45 192.578 1389.79 142.911 1440 72.4707" stroke="white" stroke-width="0.75" stroke-linecap="round" stroke-linejoin="round" stroke-dasharray="0.1 0.1"/>
<path d="M-55.418 623.152C14.4262 571.03 95.5963 529.106 182.996 518.719C259.069 509.654 331.367 538.171 404.421 554.223C478.606 570.652 556.001 572.163 627.355 543.269C707.959 510.599 747.978 452.433 801.777 389.547C848.403 334.97 902.768 284.547 970.536 257.731C1055.48 224.116 1148.92 231.481 1236.7 209.763C1321.46 188.612 1388.85 137.434 1437.92 65.8608" stroke="white" stroke-width="0.75" stroke-linecap="round" stroke-linejoin="round" stroke-dasharray="0.1 0.1"/>
<path d="M-49.9434 647.325C18.9569 593.692 99.5608 550.068 186.96 537.982C263.034 527.406 336.087 554.6 409.518 569.331C484.27 584.25 561.665 584.439 632.83 554.034C712.868 519.852 751.943 460.554 804.609 396.534C850.291 341.013 903.901 289.269 971.102 261.13C1055.48 225.816 1149.49 231.292 1236.89 207.875C1321.27 185.024 1388.09 132.524 1435.66 59.8179" stroke="white" stroke-width="0.75" stroke-linecap="round" stroke-linejoin="round" stroke-dasharray="0.1 0.1"/>
<path d="M-44.4697 671.308C23.6755 616.165 103.524 571.03 190.924 557.055C266.997 544.969 340.617 570.841 414.614 584.061C489.743 597.469 567.516 596.147 638.115 564.42C717.775 528.539 755.717 468.485 807.251 403.144C851.989 346.489 904.655 293.612 971.479 264.151C1055.48 227.137 1149.68 230.914 1236.89 205.42C1321.08 180.869 1386.96 126.859 1433.21 53.019" stroke="white" stroke-width="0.75" stroke-linecap="round" stroke-linejoin="round" stroke-dasharray="0.1 0.1"/>
<path d="M-38.9951 695.481C28.2062 638.827 107.489 591.992 194.888 576.318C270.962 562.721 345.336 587.271 419.711 599.169C495.407 611.255 573.179 608.422 643.401 574.996C722.495 537.415 759.493 476.417 809.894 409.942C853.688 352.344 905.411 298.144 972.046 267.362C1055.48 228.648 1150.05 230.537 1237.08 203.342C1321.08 177.092 1386.01 121.571 1431.13 46.7871" stroke="white" stroke-width="0.75" stroke-linecap="round" stroke-linejoin="round"/>
<path d="M-33.71 719.654C32.7363 661.677 111.264 612.954 198.663 595.58C274.548 580.472 349.866 603.701 424.807 614.088C500.881 624.663 579.031 620.32 648.875 585.571C727.591 546.291 763.457 484.538 812.725 416.741C855.576 358.009 906.354 302.865 972.612 270.572C1055.67 229.97 1150.62 230.159 1237.26 201.265C1321.08 173.315 1385.07 116.472 1428.86 40.3662" stroke="white" stroke-width="0.75" stroke-linecap="round" stroke-linejoin="round" stroke-dasharray="0.1 0.1"/>
<path d="M-28.2354 743.637C37.2671 684.15 115.228 633.728 202.628 614.654C278.512 598.035 354.586 619.753 429.904 628.818C506.544 638.071 584.883 632.217 654.161 595.958C732.31 555.167 767.044 492.28 815.368 423.539C857.275 363.863 907.11 307.398 972.99 273.783C1055.48 231.481 1150.81 229.781 1237.26 199.188C1320.89 169.538 1383.94 111.184 1426.41 33.9453" stroke="white" stroke-width="0.75" stroke-linecap="round" stroke-linejoin="round"/>
<path d="M-22.7607 767.81C41.7979 706.812 119.193 654.69 206.403 633.917C282.288 615.787 358.928 636.183 434.813 643.926C512.019 651.669 590.357 644.304 659.446 606.534C737.219 564.043 770.819 500.212 818.011 430.338C858.974 369.529 908.054 311.93 973.367 276.994C1055.48 232.992 1151 229.404 1237.26 196.922C1320.51 165.573 1382.99 105.708 1424.15 27.5249" stroke="white" stroke-width="0.75" stroke-linecap="round" stroke-linejoin="round" stroke-dasharray="0.1 0.1"/>
<path d="M1424.9 25.8252C1425.09 25.8252 1425.09 25.8252 1424.9 25.8252Z" stroke="white" stroke-width="0.75" stroke-linecap="round" stroke-linejoin="round"/>
<path d="M-17.2871 791.983C46.5164 729.474 123.156 675.652 210.367 653.179C286.252 633.539 363.646 652.613 439.909 658.845C517.492 665.266 596.208 656.39 664.731 617.109C741.937 572.919 774.594 508.333 820.653 437.137C860.483 375.383 908.808 316.652 973.744 280.204C1055.29 234.503 1151.37 229.026 1237.26 194.844C1320.32 161.796 1381.86 100.609 1421.69 21.104" stroke="white" stroke-width="0.75" stroke-linecap="round" stroke-linejoin="round" stroke-dasharray="0.1 0.1"/>
<path d="M-11.8135 815.967C51.0462 751.947 127.12 696.615 214.33 672.253C290.215 651.102 368.365 668.854 445.005 673.764C523.155 678.674 601.871 668.287 670.016 627.685C746.845 581.795 778.369 516.264 823.296 443.936C862.182 381.049 909.563 321.184 974.31 283.414C1055.48 236.013 1151.75 228.648 1237.45 192.767C1320.32 158.019 1380.92 95.3215 1419.42 14.8721" stroke="white" stroke-width="0.75" stroke-linecap="round" stroke-linejoin="round"/>
<path d="M-6.33887 840.139C55.577 774.609 131.084 717.577 218.295 691.515C294.18 668.854 372.896 685.095 450.291 688.683C528.818 692.271 607.912 680.184 675.679 638.071C751.942 590.67 782.522 524.196 826.316 450.545C864.259 386.714 910.696 325.527 975.065 286.247C1055.67 236.957 1152.32 228.082 1237.83 190.312C1320.51 153.864 1380.16 89.6557 1417.54 8.07324" stroke="white" stroke-width="0.75" stroke-linecap="round" stroke-linejoin="round"/>
<path d="M-1.05273 864.312C60.1081 797.27 134.86 738.539 222.071 710.778C297.956 686.605 377.427 701.524 455.199 703.602C534.293 705.679 613.576 692.271 680.777 648.647C756.662 599.546 786.109 532.127 828.771 457.343C865.769 392.38 911.451 330.248 975.255 289.457C1055.48 238.468 1152.51 227.704 1237.64 188.234C1320.13 150.087 1379.03 84.5568 1414.9 1.65234" stroke="white" stroke-width="0.75" stroke-linecap="round" stroke-linejoin="round" stroke-dasharray="0.1 0.1"/>
<path d="M1415.84 0.141517C1415.84 -0.0471722 1415.84 -0.0471722 1415.84 0.141517Z" stroke="white" stroke-width="0.75" stroke-linecap="round" stroke-linejoin="round"/>
</g>
</svg>
