<svg width="202" height="15" viewBox="0 0 202 15" fill="none" xmlns="http://www.w3.org/2000/svg">
<path d="M97.4592 6.09386C82.6787 1.87511 70.2076 -2.49989 54.8113 1.87511C47.2671 3.90636 40.1848 7.03136 32.6406 8.90636C22.171 11.5626 12.6253 10.4689 2.30976 8.12511C-0.153653 7.65636 -0.92347 10.9376 1.23202 11.8751C16.1665 17.9689 31.7168 14.0626 46.1893 9.21886C54.3494 6.40636 62.9713 3.43761 71.7473 3.90636C80.6771 4.53136 88.9912 8.12511 97.6131 10.3126C114.087 14.3751 127.944 7.50011 143.956 5.31261C163.048 2.50011 181.831 5.62511 200.769 7.65636C202.154 7.81261 202.462 5.46886 201.077 5.15636C184.756 2.18761 167.513 0.156359 150.884 1.25011C132.409 2.65636 115.935 11.2501 97.4592 6.09386Z" fill="#FFCE26"/>
</svg>
