<svg width="132" height="16" viewBox="0 0 132 16" fill="none" xmlns="http://www.w3.org/2000/svg">
<path d="M63.2997 6.69396C53.6997 2.47521 45.5997 -1.89979 35.5997 2.47521C30.6997 4.50646 26.0997 7.63146 21.1997 9.50646C14.3997 12.1627 8.1997 11.069 1.4997 8.72521C-0.100301 8.25646 -0.600301 11.5377 0.799699 12.4752C10.4997 18.569 20.5997 14.6627 29.9997 9.81896C35.2997 7.00646 40.8997 4.03771 46.5997 4.50646C52.3997 5.13146 57.7997 8.72521 63.3997 10.9127C74.0997 14.9752 83.0997 8.10021 93.4997 5.91271C105.9 3.10021 118.1 6.22521 130.4 8.25646C131.3 8.41271 131.5 6.06896 130.6 5.75646C120 2.78771 108.8 0.756458 97.9997 1.85021C85.9997 3.25646 75.2997 11.8502 63.2997 6.69396Z" fill="#009264"/>
</svg>
