<svg width="131" height="16" viewBox="0 0 131 16" fill="none" xmlns="http://www.w3.org/2000/svg">
<g clip-path="url(#clip0_713_733)">
<path d="M63.2032 6.49994C53.6178 1.99994 45.5302 -2.66673 35.5454 1.99994C30.6529 4.1666 26.0599 7.49994 21.1674 9.49994C14.3777 12.3333 8.18717 11.1666 1.49738 8.6666C-0.100178 8.1666 -0.599416 11.6666 0.79845 12.6666C10.4837 19.1666 20.5683 14.9999 29.9539 9.83327C35.2459 6.83327 40.8373 3.6666 46.5286 4.1666C52.3198 4.83327 57.7116 8.6666 63.303 10.9999C73.9867 15.3333 82.973 7.99994 93.3571 5.6666C105.738 2.6666 117.92 5.99994 130.201 8.1666C131.1 8.33327 131.299 5.83327 130.401 5.49994C119.817 2.33327 108.634 0.166604 97.8503 1.33327C85.8686 2.83327 75.1849 11.9999 63.2032 6.49994Z" fill="#745BA3"/>
</g>
<defs>
<clipPath id="clip0_713_733">
<rect width="16" height="131" fill="white" transform="matrix(0 -1 1 0 0 16)"/>
</clipPath>
</defs>
</svg>
