<svg width="55" height="55" viewBox="0 0 55 55" fill="none" xmlns="http://www.w3.org/2000/svg">
<path d="M43.6566 11.2521C41.5553 9.13028 39.0527 7.44788 36.2946 6.30296C33.5366 5.15803 30.5782 4.57348 27.592 4.58338C15.0795 4.58338 4.88158 14.7813 4.88158 27.2938C4.88158 31.3042 5.93574 35.2 7.90658 38.6375L4.69824 50.4167L16.7295 47.2542C20.0524 49.0646 23.7878 50.0271 27.592 50.0271C40.1045 50.0271 50.3024 39.8292 50.3024 27.3167C50.3024 21.2438 47.942 15.5375 43.6566 11.2521ZM27.592 46.1771C24.2003 46.1771 20.8774 45.2605 17.967 43.5417L17.2795 43.1292L10.1295 45.0084L12.0316 38.0417L11.5732 37.3313C9.68846 34.3225 8.68786 30.8442 8.68574 27.2938C8.68574 16.8896 17.1649 8.41046 27.5691 8.41046C32.6107 8.41046 37.3545 10.3813 40.9066 13.9563C42.6657 15.7068 44.0597 17.7892 45.0078 20.0827C45.9559 22.3761 46.4391 24.835 46.4295 27.3167C46.4753 37.7209 37.9962 46.1771 27.592 46.1771ZM37.9503 32.0605C37.3774 31.7855 34.5816 30.4105 34.0774 30.2042C33.5503 30.0209 33.1837 29.9292 32.7941 30.4792C32.4045 31.0521 31.3274 32.3355 31.0066 32.7021C30.6857 33.0917 30.342 33.1375 29.7691 32.8396C29.1962 32.5646 27.3628 31.9459 25.2087 30.0209C23.5128 28.5084 22.3899 26.6521 22.0462 26.0792C21.7253 25.5063 22.0003 25.2084 22.2982 24.9105C22.5503 24.6584 22.8712 24.2459 23.1462 23.925C23.4212 23.6042 23.5357 23.3521 23.7191 22.9855C23.9024 22.5959 23.8107 22.275 23.6732 22C23.5357 21.725 22.3899 18.9292 21.9316 17.7834C21.4732 16.6834 20.992 16.8209 20.6482 16.798H19.5482C19.1587 16.798 18.5628 16.9355 18.0357 17.5084C17.5316 18.0813 16.0649 19.4563 16.0649 22.2521C16.0649 25.048 18.1045 27.7521 18.3795 28.1188C18.6545 28.5084 22.3899 34.2375 28.0732 36.6896C29.4253 37.2855 30.4795 37.6292 31.3045 37.8813C32.6566 38.3167 33.8941 38.248 34.8795 38.1105C35.9795 37.95 38.2482 36.7355 38.7066 35.4063C39.1878 34.0771 39.1878 32.9542 39.0274 32.7021C38.867 32.45 38.5232 32.3355 37.9503 32.0605Z" fill="#FFCB00"/>
</svg>
