<svg width="127" height="53" viewBox="0 0 127 53" fill="none" xmlns="http://www.w3.org/2000/svg">
<g clip-path="url(#clip0_713_486)">
<path d="M126.677 24.0907C126.838 24.0907 127 24.178 127 24.2653C127 24.3526 126.73 24.2653 126.677 24.2653C126.623 24.2653 126.407 24.6145 126.353 24.7017C126.299 24.789 125.76 25.1382 125.598 25.1382C125.437 25.2255 125.598 25.8365 125.545 25.9237C125.491 26.011 125.329 26.0983 125.221 26.0983C125.167 26.0983 125.006 25.9237 124.952 25.8365C124.898 25.7492 124.466 25.9237 124.359 26.011C124.251 26.0983 123.712 26.3602 123.55 26.4475C123.388 26.5347 123.173 27.233 123.173 27.4076C123.173 27.5822 122.903 27.844 122.903 28.0186C122.903 28.0186 122.903 28.0186 122.957 28.0186C123.173 28.1059 123.496 27.5822 123.388 27.3203C123.281 27.0584 123.281 27.0584 123.281 27.0584C123.388 26.9712 123.55 26.9712 123.604 26.9712C123.658 26.9712 123.927 26.8839 123.981 26.8839C124.035 26.7966 124.359 26.622 124.466 26.622C124.466 27.0584 124.466 27.0584 124.466 27.0584C124.682 26.9712 124.952 26.7966 125.059 26.7093C125.167 26.622 125.545 26.622 125.652 26.7093C125.76 26.7966 126.084 26.8839 126.138 26.8839C126.138 26.8839 126.138 27.0584 125.976 27.233C125.976 27.233 125.976 27.233 125.976 27.4076C125.922 28.0186 125.76 27.4076 125.652 27.4949C125.598 27.5822 125.598 27.5822 125.598 27.5822C125.491 27.6694 125.383 27.7567 125.275 27.6694C125.167 27.5822 124.952 27.4949 125.006 27.7567C125.006 27.7567 125.006 27.7567 125.059 27.844C125.113 27.9313 125.113 27.9313 125.113 27.9313C125.167 28.0186 125.221 28.1059 125.221 28.2804C125.221 28.3677 125.329 28.6296 125.167 28.6296C125.006 28.5423 124.682 28.8042 124.628 28.8042C124.574 28.7169 124.413 28.6296 124.359 28.7169C124.305 28.8042 123.981 29.066 123.981 29.1533C123.981 29.2406 123.981 29.5897 123.981 29.677C123.981 29.677 123.981 29.677 124.035 29.677C124.143 29.7643 124.143 29.7643 124.143 29.7643C124.251 29.8516 124.305 30.0261 124.251 30.2007C124.251 30.2007 124.251 30.2007 124.143 30.288C124.035 30.3753 124.035 30.3753 124.035 30.3753C123.874 30.3753 123.766 30.2007 123.766 29.9389C123.766 29.9389 123.766 29.9389 123.604 29.677C123.55 29.5897 123.55 29.5897 123.55 29.5897C123.658 29.3279 123.712 29.066 123.712 29.066C123.712 29.066 123.604 29.066 123.55 29.1533C123.496 29.2406 123.334 29.5024 123.281 29.5897C123.227 29.677 123.065 30.0261 123.065 30.0261L123.227 30.2007C123.281 30.288 123.173 30.5499 123.119 30.6371C123.065 30.7244 123.227 30.9863 123.173 31.0736C123.119 31.1609 122.903 31.3354 122.849 31.3354C122.795 31.3354 122.526 31.4227 122.418 31.5973C122.31 31.7719 121.933 32.121 121.933 32.121C121.879 32.121 121.879 31.9464 121.825 31.8591C121.771 31.7719 121.663 31.6846 121.556 31.7719C121.448 31.8591 121.502 32.2956 121.394 32.4701C121.286 32.6447 120.693 32.9066 120.478 32.9066C120.478 32.9066 120.477 32.9066 120.316 32.9066C120.262 32.9066 120.262 32.9066 120.262 32.9066C120.154 32.732 120.046 32.6447 120.046 32.8193C120.046 32.9939 119.777 33.2557 119.669 33.1684C119.669 33.1684 119.669 33.1684 119.561 33.1684C119.238 33.2557 119.238 33.2557 119.238 33.2557C118.968 33.0811 118.699 32.9939 118.591 33.0811C118.537 33.1684 118.267 32.8193 118.106 32.732C118.106 32.732 118.106 32.732 117.998 32.732C117.944 32.8193 117.89 32.732 117.836 32.5574C117.782 32.3829 117.782 31.7719 117.728 31.9464C117.674 32.121 117.567 32.2956 117.459 32.2083C117.459 32.2083 117.459 32.2083 117.405 32.121L117.459 31.9464C117.351 31.7719 117.351 31.7719 117.351 31.7719C117.297 31.5973 117.135 31.3354 117.028 31.2481C117.028 31.2481 117.028 31.2481 116.974 31.1609C116.92 31.0736 116.92 30.9863 116.92 30.899C116.704 30.4626 116.65 29.8516 116.327 29.5024C116.219 29.3279 116.219 29.3279 116.219 29.3279C116.219 28.9787 116.219 28.7169 116.273 28.6296C116.327 28.5423 116.165 28.3677 116.111 28.1932C116.057 28.0186 115.842 27.844 115.68 28.1059C115.68 28.1059 115.68 28.1059 115.41 28.1059C115.195 28.1059 115.087 28.455 114.925 28.6296C114.656 28.8914 114.656 28.8914 114.656 28.8914C114.332 28.9787 114.063 29.2406 114.063 29.4152C114.063 29.677 113.524 29.9389 113.416 30.0261C113.308 30.2007 112.661 30.6371 112.338 30.9863C112.338 30.9863 112.338 30.9863 112.122 31.3354C111.907 31.6846 111.907 31.6846 111.907 31.6846C111.583 31.9464 111.044 32.4701 110.667 32.8193C110.667 32.8193 110.667 32.8193 110.289 33.0811C110.074 33.2557 110.074 33.2557 110.074 33.2557C109.804 33.4303 109.535 33.6921 109.481 33.7794C109.427 33.954 109.157 34.3031 109.05 34.3031C109.05 34.3031 109.05 34.3031 108.942 34.2158C108.888 34.2158 108.888 34.2158 108.888 34.2158C108.834 34.3031 108.726 34.4777 108.672 34.6523C108.618 34.8268 108.295 35.3506 108.025 35.6124C108.025 35.6124 108.025 35.6124 107.81 35.8743C107.594 36.2234 107.594 36.2234 107.594 36.2234C107.271 36.398 107.001 36.5725 106.947 36.6598C106.947 36.6598 106.947 36.6598 106.947 36.7471C106.947 36.8344 106.947 36.8344 106.947 36.8344C106.893 36.9217 106.57 37.1835 106.3 37.4454C106.031 37.7073 105.222 38.6674 105.061 38.7547C105.061 38.7547 105.061 38.7547 104.899 38.842C104.791 38.9293 104.737 39.3657 104.522 39.0165C104.468 39.0165 104.36 39.1911 104.306 39.3657C104.198 39.5402 103.875 39.8894 103.821 39.9767C103.767 40.064 103.39 40.3258 103.012 40.5877C102.635 40.8495 101.719 41.6351 101.611 41.7224C101.503 41.7224 101.287 41.6351 101.287 41.5478C101.287 41.5478 101.018 41.3732 100.748 41.286C100.479 41.1987 99.6163 41.1987 99.5085 41.1114C99.5085 41.1114 99.5085 41.1114 99.4007 40.9368C99.1851 40.5877 99.1851 40.5877 99.1851 40.5877C98.9694 40.2385 98.646 39.8021 98.5382 39.6275C98.4304 39.453 98.3765 38.7547 98.3765 38.6674C98.3765 38.5801 98.107 38.231 97.9991 38.0564C97.8913 37.8818 97.8374 37.2708 97.7835 37.1835C97.7296 37.0963 97.2984 37.009 96.8671 37.3581C96.8671 37.3581 96.8671 37.3581 96.8132 38.0564C96.8132 38.1437 96.8132 38.1437 96.8132 38.1437C96.6515 38.231 96.382 38.5801 96.1125 39.0165C96.1125 39.0165 96.1125 39.0165 95.8429 39.2784C95.5734 39.5402 95.4117 39.9767 95.0883 40.2385C94.8188 40.5004 94.657 41.0241 94.4414 41.3732C94.4414 41.3732 94.3875 41.3732 94.3875 41.4605C94.2797 41.8097 94.2797 41.8097 94.2797 41.8097C94.0641 41.897 93.7946 42.0715 93.7946 42.2461C93.7946 42.4207 93.4172 42.5952 93.3094 42.6825C93.2016 42.7698 92.8782 43.2935 92.7165 43.5554C92.5547 43.8172 91.9079 44.6028 91.5845 44.9519C91.261 45.3011 90.3447 46.1739 90.1829 46.2612C90.0212 46.4358 89.3744 46.6104 89.2126 46.6104C89.0509 46.6104 88.6736 46.3485 88.5119 46.2612C88.3502 46.1739 87.865 46.2612 87.7572 46.4358C87.7572 46.4358 87.7572 46.4358 87.5955 46.1739C87.5416 46.0866 87.5416 46.0866 87.5416 46.0866C87.3799 46.1739 87.1643 46.1739 87.0564 46.1739C86.9486 46.1739 86.8947 45.9121 87.0025 45.9121C87.1104 45.9121 87.326 45.6502 87.1643 45.3011C87.0025 44.9519 86.194 44.6901 86.194 44.6028C86.194 44.5155 86.194 44.1664 86.2479 43.9918C86.2479 43.8172 85.8705 43.1189 85.7088 42.7698C85.5471 42.4207 85.2776 41.1987 85.1698 40.9368C85.1159 40.675 84.7924 40.1512 84.7385 40.3258C84.6846 40.5004 84.3612 40.8495 84.1995 40.9368C84.1995 40.9368 84.1995 40.9368 84.0917 41.1114C83.9839 41.286 83.9839 41.286 83.9839 41.286C83.93 41.5478 83.6604 41.9842 83.4448 42.2461C83.4448 42.2461 83.4448 42.2461 83.2831 42.5079C83.1214 42.7698 82.9597 43.0317 82.798 43.2935C82.5823 43.9045 82.5823 43.9045 82.5823 43.9045C82.1511 44.3409 81.8277 44.7774 81.7738 44.8647C81.7738 44.8647 81.5042 45.1265 81.3425 45.3884C81.1808 45.6502 80.48 46.3485 80.2105 46.5231C79.941 46.6976 79.1324 47.4832 78.9168 47.7451C78.7012 48.0069 77.8387 47.5705 77.7309 47.5705C77.6231 47.4832 77.1918 47.6578 77.1379 47.5705C77.0301 47.4832 76.7606 47.3959 76.7067 47.4832C76.6528 47.5705 76.4911 47.7451 76.3833 47.6578C76.2755 47.5705 75.952 47.0468 75.8442 46.6976C75.7903 46.3485 75.413 45.3884 75.3052 45.2138C75.3052 45.2138 75.3052 45.2138 75.3052 45.0392C75.3052 44.8647 75.3052 44.8647 75.3052 44.8647C75.3591 44.6901 75.3591 44.5155 75.2513 44.5155C75.1435 44.5155 74.8739 44.5155 74.8739 44.4282C74.8739 44.3409 74.82 44.0791 74.8739 43.7299C74.8739 43.7299 74.8739 43.7299 74.7122 43.4681C74.6583 43.3808 74.6583 43.3808 74.6583 43.3808C74.6044 43.2935 74.4966 42.7698 74.3349 42.3334C74.3349 42.3334 74.3349 42.3334 74.1193 41.9842C74.0654 41.897 74.0115 41.8097 74.0115 41.7224C74.0115 41.5478 74.0115 41.5478 74.0115 41.5478C74.1193 41.3732 74.2271 41.1987 74.281 41.1114C74.281 41.1114 74.281 41.1114 74.281 41.0241C74.2271 40.8495 74.2271 40.8495 74.2271 40.8495C74.1732 41.0241 74.0654 41.0241 73.9576 40.9368C73.8497 40.8495 73.4185 40.5877 73.3107 40.7622C73.2029 40.9368 73.4185 41.4605 73.3646 41.4605C73.3107 41.4605 73.2029 41.6351 73.2029 41.7224C73.2029 41.8097 73.3107 42.1588 73.3646 42.2461C73.3646 42.2461 73.3646 42.2461 73.4185 42.2461C73.4724 42.2461 73.5263 42.1588 73.5802 42.0715C73.5802 42.0715 73.5802 41.8969 73.6341 41.8969C73.688 41.8969 73.7958 41.8097 73.8497 41.8097C73.9036 41.8097 73.9576 41.9842 73.9036 42.0715C73.8497 42.2461 73.8497 42.2461 73.8497 42.2461C73.7419 42.4207 73.688 42.5079 73.7419 42.5952C73.7958 42.5952 73.7958 42.7698 73.688 42.7698C73.5802 42.8571 73.4724 43.3808 73.4185 43.3808C73.4185 43.3808 73.4185 43.3808 73.3646 43.3808C73.2568 43.3808 73.149 43.2935 73.0951 43.2935C73.0412 43.2935 73.0412 43.2935 73.0412 43.2935C72.9873 43.4681 72.9334 43.6427 72.9334 43.7299C72.9334 43.7299 72.9334 43.7299 72.9334 43.8172C72.9334 43.9045 72.9334 43.9045 72.9334 43.9045C72.8795 43.9918 72.7716 44.1664 72.7177 44.2537C72.6099 44.3409 72.1787 44.1664 72.017 44.2537C71.9092 44.3409 71.424 44.0791 71.2084 44.0791C70.9928 44.0791 70.5615 43.9045 70.3998 43.8172C70.2381 43.8172 69.8069 43.6427 69.6991 43.5554C69.5913 43.4681 69.3217 43.3808 69.2678 43.2935C69.2678 43.2935 69.2678 43.2935 69.2678 43.2062C69.3217 42.9444 69.3756 43.2062 69.4295 43.2062C69.4834 43.2062 69.5373 43.2935 69.5373 43.2062C69.5913 43.2062 69.5913 43.2062 69.5913 43.2062C69.6452 43.1189 69.6452 43.1189 69.6452 43.0317C69.6452 43.0317 69.5912 42.8571 69.6452 42.8571C69.6991 42.8571 69.8069 42.6825 69.753 42.5952C69.6991 42.5079 69.4295 42.3334 69.2678 42.2461C69.1061 42.1588 69.1061 41.5478 69.1061 41.5478C69.1061 41.4605 69.0522 41.3732 68.9983 41.3732C68.9444 41.3732 68.7827 41.4605 68.7288 41.4605C68.6749 41.5478 68.5671 41.286 68.5671 41.1987C68.5671 41.1987 68.5671 41.1987 68.5671 41.1114C68.5671 41.0241 68.5671 41.0241 68.5671 41.0241C68.5132 41.0241 68.4593 40.9368 68.4593 41.0241C68.3514 41.1114 68.1897 41.1987 68.1897 41.286C68.1897 41.6351 68.1897 41.6351 68.1897 41.6351C67.9741 41.7224 67.8124 41.7224 67.7585 41.8097C67.7585 41.8097 67.6507 41.9842 67.5968 42.0715C67.5429 42.1588 67.3272 42.5952 67.2733 42.6825C67.1655 42.7698 67.0038 43.2062 67.0038 43.2935C66.9499 43.3808 66.6804 43.7299 66.6265 43.9045C66.5726 44.0791 66.1413 44.5155 66.0874 44.6028C66.0335 44.6901 65.9796 45.1265 65.8718 45.2138C65.764 45.3011 65.3328 46.0866 65.0632 46.5231C65.0632 46.5231 65.0632 46.5231 64.8476 46.9595C64.632 47.3086 64.4164 47.8324 64.039 48.0942C63.9851 48.1815 63.9851 48.1815 63.9851 48.1815C63.9312 48.2688 63.8234 48.4434 63.7695 48.6179C63.7156 48.7925 63.2844 49.4035 63.0149 49.5781C63.0149 49.5781 63.0149 49.5781 62.7992 49.7526C62.6914 49.8399 62.6914 49.8399 62.6914 49.8399C62.5836 50.0145 62.4758 50.2763 62.368 50.3636C62.2602 50.4509 62.0446 50.5382 61.8829 50.4509C61.8829 50.4509 61.8828 50.4509 61.775 50.6255C61.7211 50.8001 61.7211 50.8001 61.7211 50.8001C61.6672 50.9746 61.4516 50.9746 61.3438 50.7128C61.1821 50.4509 60.4813 50.6255 60.3735 50.6255C60.2657 50.6255 59.9962 50.3636 59.8345 50.6255C59.6727 50.8873 58.972 50.7128 58.9181 50.7128C58.8642 50.8001 58.7025 50.9746 58.6486 51.0619C58.5947 51.1492 58.2712 51.1492 58.1095 51.3238C57.9478 51.4983 57.3548 51.4111 57.4087 51.4111C57.4626 51.3238 57.4087 51.0619 57.3548 50.9746C57.3009 50.8873 57.3009 50.3636 57.3548 50.1891C57.4087 50.1018 57.4087 49.6653 57.4626 49.4908C57.4626 49.3162 57.4626 48.6179 57.3548 48.1815C57.3548 48.1815 57.3548 48.1815 56.9775 48.1815C56.8158 48.1815 56.8158 48.1815 56.8158 48.1815C56.8158 48.3561 56.8158 48.6179 56.8158 48.6179C56.8158 48.7052 56.7619 48.8798 56.6541 48.8798C56.6541 48.8798 56.6541 48.8798 56.6002 48.7925C56.4924 48.6179 56.4924 48.6179 56.4924 48.6179C56.3845 48.3561 56.2228 48.0069 56.2228 47.9196C56.1689 47.7451 56.115 47.3959 56.1689 47.3959C56.2228 47.3959 56.4384 47.3086 56.4384 47.3086C56.4384 46.9595 56.4384 46.9595 56.4384 46.9595C56.4384 46.6104 56.3845 46.2612 56.2767 46.2612C56.2228 46.1739 55.8455 46.0866 55.7916 45.9994C55.6838 45.9121 55.3604 45.3011 55.3064 44.9519C55.3064 44.9519 55.3064 44.9519 55.4143 44.6028C55.4682 44.4282 55.4682 44.4282 55.4682 44.4282C55.4682 44.1664 55.4143 43.9918 55.3604 43.9918C55.3064 43.9918 55.2525 43.9918 55.2525 43.8172C55.2525 43.6427 54.9291 43.4681 54.9291 43.3808C54.9291 43.2935 54.9291 42.9444 54.983 42.8571C54.983 42.7698 54.8752 42.5952 54.7674 42.6825C54.6596 42.8571 54.3901 43.3808 54.2283 43.4681C54.1205 43.5554 54.0127 44.2537 53.9049 44.3409C53.7971 44.4282 53.4737 45.0392 53.4198 45.2138C53.4198 45.2138 53.4198 45.2138 53.312 45.3011C53.2042 45.4757 53.2042 45.4757 53.2042 45.4757C53.0963 45.6502 52.9885 45.9121 52.9885 45.9994C52.9346 46.1739 52.6651 46.6104 52.5034 46.7849C52.3417 46.9595 52.18 47.6578 52.18 47.6578C52.18 47.6578 51.9643 47.8324 51.8026 47.8324C51.6409 47.9196 51.6409 48.6179 51.587 48.6179C51.5331 48.6179 51.4253 48.8798 51.3175 49.1416C51.2097 49.4035 50.455 49.8399 50.2933 50.0145C50.1316 50.1891 49.7003 50.9746 49.4308 51.3238C49.4308 51.3238 49.4308 51.3238 49.1613 51.6729C48.9996 51.8475 48.9996 51.8475 48.9996 51.8475C48.8379 51.7602 48.6761 51.7602 48.6761 51.8475C48.6761 51.9348 48.2988 52.022 48.0293 51.9348C47.7598 51.8475 47.059 51.7602 46.9512 51.7602C46.8434 51.7602 46.8973 52.1966 46.8973 52.2839C46.8973 52.2839 46.8973 52.2839 46.6817 52.2839C46.5739 52.2839 46.5739 52.2839 46.5739 52.2839C46.466 52.3712 46.3043 52.4585 46.1426 52.5458C46.0348 52.633 45.6036 52.8949 45.4418 52.9822C45.2801 53.0695 44.9028 52.8076 44.7411 52.8076C44.6333 52.8076 44.3098 52.3712 44.202 52.2839C44.0942 52.1966 44.2559 51.7602 44.202 51.6729C44.1481 51.5856 44.1481 51.1492 44.202 50.8873C44.202 50.8873 44.202 50.8873 44.0942 50.7128C44.202 50.3636 44.202 50.3636 44.202 50.3636C43.9864 50.5382 43.8247 50.7128 43.8247 50.6255C43.8247 50.5382 43.8247 50.3636 43.9325 50.1018C43.9325 50.1018 43.9325 50.1018 43.663 50.0145C43.5552 50.0145 43.4474 50.1018 43.3396 50.1018C43.3396 49.9272 43.3396 49.7526 43.3935 49.7526C43.4474 49.6653 43.6091 49.4908 43.663 49.4908C43.7169 49.4908 43.8247 49.1416 43.7169 49.0543C43.6091 48.9671 43.4474 48.6179 43.3396 48.5306C43.3396 48.5306 43.3396 48.5306 43.2317 48.4434C42.9622 48.2688 42.9622 48.2688 42.9622 48.2688C42.7466 47.9196 42.4771 47.2214 42.2615 46.6976C42.2615 46.6976 42.2615 46.6976 42.0458 46.2612C41.8302 45.9121 41.8302 45.9121 41.8302 45.9121C41.7763 45.4757 41.6146 45.0392 41.399 44.9519C41.399 44.9519 41.399 44.9519 41.2912 44.8647C41.0756 44.6901 41.0755 44.6901 41.0755 44.6901C40.9138 44.8647 40.6443 45.0392 40.4287 45.2138C40.4287 45.2138 40.4287 45.2138 40.267 45.2138C40.2131 45.2138 40.2131 45.2138 40.2131 45.2138C40.1592 45.1265 39.8357 45.0392 39.6201 45.1265C39.6201 45.1265 39.6201 45.1265 39.5123 45.3011C39.2967 45.5629 39.2967 45.5629 39.2967 45.5629C39.135 45.3884 38.9733 45.3011 38.9733 45.3011C38.9194 45.3011 38.8654 45.3884 38.9193 45.3884C38.9193 45.3884 38.9194 45.5629 38.8115 45.5629C38.7037 45.5629 38.3803 45.8248 38.2725 45.7375C38.1647 45.6502 37.8413 45.9994 37.7334 45.9994C37.6256 45.9994 37.2483 45.8248 37.1944 45.5629C37.1944 45.5629 37.1944 45.5629 37.1405 45.3884C37.0327 45.1265 37.0327 45.1265 37.0327 45.1265C36.9249 44.9519 36.8171 44.7774 36.7632 44.7774C36.7092 44.6901 36.6014 44.2537 36.6014 44.2537C36.6014 44.2537 36.6014 44.1664 36.5475 44.1664C36.4936 44.1664 36.3319 43.9918 36.1702 43.8172C36.1702 43.8172 36.1702 43.8172 36.278 43.5554C36.3319 43.3808 36.3319 43.3808 36.3319 43.3808C36.278 43.1189 36.1163 42.6825 35.8468 42.5952C35.5772 42.5079 35.1999 41.7224 35.0921 41.5478C34.9843 41.3732 34.8226 40.9368 34.8226 40.8495C34.8226 40.8495 34.8226 40.8495 34.7687 40.7622C34.7148 40.675 34.7148 40.675 34.7148 40.675C34.6609 40.5877 34.4991 40.2385 34.3913 40.064C34.2835 39.8894 33.7445 39.1911 33.7445 38.6674C33.7445 38.6674 33.7445 38.6674 33.475 38.3183C33.2593 38.0564 33.2593 38.0564 33.2593 38.0564C33.2054 37.5327 32.9898 37.2708 32.882 37.4454C32.7203 37.62 32.4508 38.4055 32.343 38.5801C32.2351 38.7547 32.0734 39.5402 32.0195 39.7148C31.9117 39.8894 31.5344 40.2385 31.4805 40.2385C31.4805 40.4131 31.4805 40.4131 31.4805 40.4131C31.4805 40.5877 31.4266 40.7622 31.2649 40.9368C31.2649 40.9368 31.2649 40.9368 31.157 41.1114C31.0492 41.1987 31.0492 41.1987 31.0492 41.1987C30.9953 41.3732 30.9953 41.6351 30.9953 41.6351C30.9953 41.6351 31.1031 41.6351 31.0492 41.6351C30.9953 41.6351 30.8336 41.7224 30.7797 41.8969C30.7797 41.8969 30.7797 41.897 30.7258 42.0715C30.618 42.2461 30.8875 42.5952 30.5641 42.7698C30.4563 42.8571 30.3485 43.1189 30.2946 43.2935C30.2946 43.3808 30.2946 43.4681 30.2407 43.4681C30.0789 43.6427 30.0789 43.6427 30.0789 43.6427C30.025 43.9045 29.9172 44.1664 29.8094 44.2537C29.7016 44.3409 29.4321 44.8647 29.2165 45.0392C29.2165 45.0392 29.2165 45.0392 29.1087 45.3011C29.0008 45.5629 28.6774 45.7375 28.6774 45.9121C28.6774 46.3485 28.2462 46.1739 28.1923 46.6104C28.1384 46.8722 28.1384 46.8722 28.1384 46.8722C27.8688 47.1341 27.5993 47.3959 27.5454 47.3086C27.4915 47.2214 27.222 47.0468 27.1142 47.0468C26.9525 46.9595 26.7368 47.5705 26.7368 47.5705C26.7368 47.6578 26.6829 47.7451 26.629 47.5705C26.629 47.5705 26.629 47.5705 26.629 47.4832C26.629 47.3959 26.629 47.3959 26.629 47.3959C26.5751 47.3086 26.4673 47.3086 26.3595 47.3959C26.3595 47.3959 26.3595 47.3959 26.2517 47.4832C26.1978 47.5705 26.1978 47.5705 26.1978 47.5705C26.1439 47.6578 25.9822 47.5705 25.8744 47.5705C25.7666 47.4832 25.3892 48.0069 25.2275 48.0942C25.0658 48.1815 24.5267 48.5306 24.4189 48.7052C24.3111 48.8798 23.7721 48.8798 23.6643 48.8798C23.5565 48.8798 23.233 48.9671 23.1791 48.9671C23.1791 48.9671 23.1791 48.9671 23.1791 48.8798C23.233 48.7925 23.0713 48.7052 22.7479 48.6179C22.7479 48.6179 22.7479 48.6179 22.4784 48.5306C22.3705 48.4434 22.3166 48.3561 22.2088 48.1815C22.101 48.0069 22.101 48.0069 22.101 48.0069C22.2088 47.8324 22.2088 47.7451 22.1549 47.6578C22.101 47.5705 21.9393 47.1341 21.7237 46.8722C21.7237 46.8722 21.7237 46.8722 21.7776 46.5231C21.7776 46.5231 21.6159 46.4358 21.5081 46.4358C21.1846 46.3485 21.1846 46.3485 21.1846 46.3485C21.1846 45.9994 21.1307 45.6502 21.0768 45.5629C21.0229 45.4757 20.969 45.1265 21.0768 45.1265C21.0768 45.1265 21.0768 45.1265 21.1846 45.1265C21.2385 45.1265 21.2924 45.1265 21.3463 45.1265V44.9519C21.0229 44.9519 20.8612 44.6901 20.6456 44.4282C20.4839 44.0791 20.4839 44.0791 20.4839 44.0791C20.2682 43.8172 20.1065 43.5554 20.1604 43.4681C20.1604 43.3808 20.1604 43.1189 20.1065 43.2062C20.0526 43.2935 19.9448 43.1189 19.9448 42.9444C19.9448 42.7698 19.7292 42.4207 19.7831 42.2461C19.7831 42.2461 19.7831 42.2461 19.7292 42.1588C19.6753 41.9842 19.6753 41.9842 19.6753 41.9842C19.6214 41.8097 19.5136 41.7224 19.4597 41.7224C19.4058 41.7224 19.298 41.6351 19.298 41.4605C19.298 41.4605 19.298 41.4605 19.1362 41.4605C19.0284 41.4605 18.9206 41.286 18.8128 41.286C18.705 41.286 18.4894 41.3732 18.4894 41.5478C18.3277 42.1588 18.3277 42.1588 18.3277 42.1588C17.9503 42.4207 17.573 42.5952 17.5191 42.4207C17.4652 42.2461 17.3035 41.9842 17.2496 42.0715C17.2496 42.2461 17.034 42.6825 16.8183 42.6825C16.6027 42.6825 16.0637 42.7698 16.0098 42.7698C15.9559 42.8571 15.7941 43.1189 15.7941 43.3808C15.7941 43.6427 15.1473 43.5554 15.0395 43.7299C14.9317 43.8172 14.5004 44.3409 14.2848 44.6028C14.2848 44.6028 14.2848 44.6028 14.0692 44.2537C14.0153 44.2537 13.7458 44.2537 13.4762 44.2537C13.4762 44.2537 13.4762 44.2537 13.3145 43.9918C13.1528 43.7299 12.9911 43.5554 13.045 43.2062C13.045 43.0317 13.045 43.0317 13.045 43.0317C12.9911 42.7698 12.8294 42.5952 12.7216 42.5952C12.6138 42.5952 12.5598 42.1588 12.5059 42.1588C12.452 42.1588 12.1825 42.2461 12.0747 42.2461C11.9669 42.2461 11.9669 41.9842 12.0208 41.9842C12.0747 41.897 11.8591 41.8097 11.8052 41.7224C11.8052 41.7224 11.8052 41.7224 11.8052 41.6351C11.8591 41.0241 11.8591 41.0241 11.8591 41.0241C11.6435 40.8495 11.5896 40.7622 11.6974 40.7622C11.8591 40.8495 12.0747 40.8495 12.0747 40.5004C12.0747 40.5004 12.0747 40.5004 11.7513 40.5004C11.6974 40.5004 11.6974 40.5004 11.6974 40.5004C11.6435 40.5004 11.5357 40.5004 11.4817 40.5004C11.4278 40.5004 11.2661 40.4131 11.3739 40.4131C11.4817 40.4131 11.5896 40.064 11.4817 39.9767C11.32 39.8021 10.8349 39.8894 10.781 39.8894C10.781 39.8894 10.781 39.8894 10.781 39.8021C10.7271 39.6275 10.7271 39.6275 10.7271 39.6275C10.6732 39.3657 10.6732 39.1038 10.6732 38.9293C10.6732 38.7547 10.2958 38.4928 10.0263 38.4928C10.0263 38.4928 10.0263 38.4928 9.8107 38.4928C9.75679 38.4928 9.75679 38.4928 9.75679 38.4928C9.70289 38.6674 9.64898 38.9293 9.64898 38.9293C9.64898 38.9293 9.59508 39.0165 9.54117 39.1038C9.48727 39.1038 9.37946 39.2784 9.37946 39.3657C9.43336 39.453 9.27165 39.6275 9.16384 39.7148C9.16384 39.7148 9.16384 39.7148 9.10993 39.8021C9.00212 39.9767 9.00212 39.9767 9.00212 39.9767C8.89431 40.1512 8.7865 40.3258 8.67869 40.2385C8.57088 40.1512 8.19355 40.4131 8.03183 40.4131C8.03183 40.4131 8.03183 40.4131 7.87012 40.3258C7.7084 40.2385 7.7084 40.2385 7.7084 40.2385C7.49278 40.1512 7.22326 40.2385 7.11545 40.3258C7.11545 40.3258 7.11545 40.3258 7.11545 40.4131C7.11545 40.7622 7.11545 40.7622 7.11545 40.7622C6.89983 40.8495 6.5764 41.0241 6.46859 41.1987C6.36078 41.286 5.98345 41.7224 5.92954 41.8097C5.87564 41.897 5.55221 41.8097 5.4444 41.7224C5.33659 41.6351 5.22878 40.9368 5.22878 40.5877C5.22878 40.2385 5.06706 39.3657 4.85144 39.1911C4.85144 39.1911 4.85144 39.1911 4.68973 39.1911C4.52801 39.1911 4.52801 39.1911 4.52801 39.1911C4.31239 39.3657 4.15068 39.3657 4.15068 39.1911C4.15068 39.0165 4.15068 38.4055 4.09677 38.4055C4.09677 38.3183 3.98896 38.3183 3.93506 38.3183C3.88115 38.4055 3.77334 38.5801 3.71944 38.4928C3.66553 38.4928 3.55772 38.231 3.44991 38.0564C3.34211 37.8818 2.85696 37.62 2.74915 37.4454C2.64134 37.2708 2.47963 36.5725 2.47963 36.398C2.42572 36.2234 2.10229 36.398 2.04839 36.3107C2.04839 36.3107 2.04839 36.3107 1.99448 36.2234C1.94058 36.0488 1.88667 35.787 1.83277 35.6124C1.77886 35.5251 1.72496 35.4378 1.67105 35.3506C1.45543 35.2633 1.45543 35.2633 1.45543 35.2633C1.18591 35.176 0.916384 35.0887 0.808574 35.0014C0.808574 35.0014 0.808574 35.0014 0.808574 34.9141C0.808574 34.7396 0.808574 34.7396 0.808574 34.7396C0.862479 34.565 0.808574 34.3904 0.646859 34.3031C0.485144 34.2158 0.431239 33.7794 0.32343 33.6048C0.32343 33.6048 0.32343 33.6048 0.21562 33.5176C0.161715 33.4303 0.0539049 33.2557 0.0539049 33.1684C0 32.9939 0 32.9938 0 32.9938C0.10781 32.4701 0.161715 32.121 0.161715 32.0337C0 31.6846 0 31.6846 0 31.6846C0.10781 31.3354 0.21562 30.899 0.21562 30.7244C0.21562 30.5499 0.32343 29.8516 0.377334 29.5024C0.377334 29.5024 0.377334 29.5024 0.431239 29.1533C0.431239 29.066 0.431239 29.066 0.431239 29.066C0.539049 28.9787 0.592954 28.8914 0.539049 28.8914C0.485144 28.8914 0.485144 28.7169 0.592954 28.6296C0.754669 28.6296 0.539049 28.1932 0.539049 28.1059C0.539049 28.1059 0.646859 28.0186 0.700764 28.0186C0.754669 28.0186 0.646859 27.5822 0.592954 27.4949C0.485144 27.3203 1.02419 26.8839 1.23981 26.622C1.23981 26.622 1.23981 26.622 0.970289 26.1856C0.970289 26.1856 0.916384 26.0983 0.970289 26.011C1.132 25.7492 1.132 25.7492 1.132 25.7492C1.34762 25.4 1.56324 25.0509 1.61715 24.9636C1.67105 24.8763 1.77886 24.5272 1.77886 24.5272C1.77886 24.5272 1.94058 24.4399 2.2101 24.5272C2.2101 24.5272 2.2101 24.5272 1.88667 24.0907C1.88667 24.0907 1.99448 23.9162 1.99448 23.8289C1.99448 23.4798 1.99448 23.4798 1.99448 23.4798C2.10229 23.1306 2.2101 22.7815 2.26401 22.6069C2.31791 22.4323 2.53353 21.9086 2.58744 21.6468C2.64134 21.4722 2.80306 20.8612 2.85696 20.7739C2.91087 20.6866 3.12649 20.7739 3.18039 20.512C3.2343 20.2502 3.50382 19.5519 3.44991 19.2901C3.61163 19.2028 3.61163 19.2028 3.61163 19.2028C3.66553 18.9409 3.82725 18.7663 3.93506 18.7663C4.04287 18.7663 4.15068 18.0681 4.31239 17.9808C4.31239 17.9808 4.31239 17.9808 4.31239 17.6316C4.31239 17.3698 4.4202 17.1079 4.52801 16.9334C4.58192 16.8461 4.58192 16.8461 4.58192 16.8461C4.74363 16.8461 4.90535 16.8461 4.95925 16.8461C5.01316 16.8461 4.95925 16.5842 4.90535 16.5842C4.85144 16.4969 5.06706 16.3224 5.12097 16.1478C5.12097 16.1478 5.12097 16.1478 5.17487 16.0605C5.22878 15.9732 5.39049 15.8859 5.4444 15.7114C5.4444 15.6241 5.4444 15.6241 5.4444 15.6241C5.33659 15.4495 5.4983 15.1876 5.71392 15.1004C5.71392 15.1004 5.71392 15.1004 5.82173 14.7512C5.92954 14.4894 5.92954 14.4894 5.92954 14.4894C6.03735 14.2275 6.25297 13.7911 6.36078 13.4419C6.36078 13.4419 6.36078 13.4419 6.5225 13.2674C6.68421 13.0928 6.68421 13.0928 6.68421 13.0928C6.79202 12.8309 6.95373 12.4818 6.95373 12.3072C6.95373 12.1327 7.33107 11.7835 7.38497 11.6089C7.43888 11.4344 7.76231 11.1725 7.76231 10.9979C7.76231 10.9979 7.76231 10.9979 7.81621 10.9107C7.87012 10.8234 8.03183 10.8234 8.08574 10.6488C8.19355 10.5615 8.19355 10.5615 8.19355 10.5615C8.35526 10.4742 8.57088 10.2997 8.7326 10.2124C8.46307 9.86324 8.46307 9.86324 8.46307 9.86324C8.67869 9.68867 8.94822 9.5141 9.05603 9.5141C9.16384 9.5141 9.43336 9.77596 9.48727 9.77596C9.54117 9.77596 9.8107 9.86324 9.8646 9.86324C9.97241 9.86324 10.2958 10.2124 10.4036 10.2997C10.5115 10.387 10.9427 10.0378 11.0505 9.95053C11.1583 9.86324 11.5896 9.5141 11.7513 9.42681C11.913 9.33953 12.3442 9.07767 12.452 9.07767C12.452 9.07767 12.452 9.07767 12.5598 9.16496L12.6677 9.07767C12.6677 8.55396 12.6677 8.55396 12.6677 8.55396C12.8833 8.72853 13.1528 8.9031 13.3145 8.99039C13.4762 9.07767 14.0692 9.5141 14.2309 9.68867C14.3926 9.86324 14.7699 10.6488 14.8778 10.8234C14.8778 10.8234 14.8778 10.8234 14.9856 10.9107C15.0395 10.9107 15.0395 10.9107 15.0395 10.9107C15.0934 10.9107 15.2551 11.1725 15.4168 11.3471C15.4168 11.3471 15.4168 11.3471 15.4168 11.5217C15.4168 11.9581 15.4168 11.9581 15.4168 11.9581C15.6324 12.0454 15.848 12.1327 15.848 12.2199C15.848 12.3072 15.7941 12.3945 15.6863 12.3945C15.6324 12.3945 15.4707 12.5691 15.5785 12.6564C15.6863 12.7437 16.0098 13.2674 16.0098 13.4419C16.0098 13.4419 16.0098 13.4419 16.0637 13.6165C16.1176 13.7911 16.1715 13.9657 16.2793 14.0529C16.3871 14.1402 16.3871 14.1402 16.3871 14.1402C16.5488 14.2275 16.6027 14.3148 16.4949 14.4021C16.3871 14.4894 16.7644 14.7512 16.8722 14.8385C16.8722 14.8385 16.8722 14.8385 16.9261 15.0131C16.9261 15.1004 16.8722 15.1876 16.8722 15.2749C16.8722 15.3622 16.8722 15.3622 16.8722 15.3622C16.9261 15.4495 17.0879 15.6241 17.1418 15.7114C17.1418 15.7114 17.1418 15.7114 17.1957 15.7114C17.3574 15.6241 17.1957 15.5368 17.1957 15.4495C17.1957 15.3622 17.1957 15.3622 17.1957 15.3622C17.1957 15.2749 17.3035 15.1876 17.4113 15.1004C17.5191 15.0131 17.7347 14.5766 17.7886 14.4894C17.8425 14.4021 18.0581 14.0529 18.166 13.9656C18.2738 13.8784 18.3277 13.1801 18.4355 13.1801C18.5433 13.1801 18.8667 13.0928 18.8128 13.0055C18.7589 12.9182 18.8128 12.6564 18.9745 12.6564C19.1362 12.6564 19.0284 12.0454 19.1362 12.0454C19.2441 12.0454 19.5675 11.3471 19.9448 10.9979C19.9448 10.9979 19.9448 10.9979 20.1065 10.4742C20.2143 10.2124 20.3761 10.2997 20.4839 10.2997C20.7534 10.387 20.7534 10.387 20.6995 10.0378C20.6456 9.77596 20.6456 9.77596 20.6456 9.77596C20.8073 9.77596 20.969 9.77596 21.0229 9.86324C21.0768 9.95053 21.2385 9.77596 21.2385 9.68867C21.2924 9.68867 21.4542 9.5141 21.562 9.42681C21.6698 9.33953 22.101 9.60138 22.2627 9.68867C22.2627 9.68867 22.2627 9.68867 22.4244 9.77596C22.4784 9.77596 22.5323 9.95053 22.5862 9.95053C22.9635 10.387 22.9635 10.387 22.9635 10.387C23.2869 10.1251 23.6104 9.86324 23.7182 9.77596C23.826 9.68867 24.2033 9.42681 24.4189 9.42681C24.6345 9.42681 25.2814 8.99039 25.4431 8.81582C25.6048 8.72853 26.1978 9.16496 26.4134 9.25224C26.4134 9.25224 26.4134 9.25224 26.629 9.33953C26.8447 9.42681 26.8447 9.42681 26.8447 9.42681C27.1142 9.5141 27.2759 10.0378 27.222 10.5615C27.222 10.5615 27.222 10.5615 27.4915 10.9107C27.5993 11.0852 27.4915 11.1725 27.4376 11.3471C27.4376 11.4344 27.4376 11.4344 27.4376 11.4344C27.5454 11.6089 27.7071 11.6962 27.8149 11.6089C27.8149 11.6089 27.8149 11.6089 27.8149 11.5217C27.8149 11.2598 27.9767 11.1725 28.0306 11.3471C28.1384 11.5217 28.1384 11.5217 28.1384 11.5217C28.1384 11.7835 28.1384 12.0454 28.0845 12.1327C28.0306 12.2199 27.8149 12.4818 27.9227 12.4818C28.0306 12.4818 28.354 12.4818 28.354 12.4818C28.354 12.4818 28.354 12.5691 28.3001 12.6564C28.2462 12.6564 28.1384 12.8309 28.2462 12.9182C28.354 13.0055 28.4618 13.2674 28.4079 13.4419C28.6774 13.7038 28.6774 13.7038 28.6774 13.7038C28.8391 14.1402 29.0008 14.5766 29.1087 14.8385C29.2165 15.0131 29.5399 15.6241 29.5938 15.5368C29.5938 15.3622 29.7016 15.1004 29.7555 15.0131C29.8094 14.9258 30.0789 14.9258 29.9711 14.8385C29.8633 14.7512 29.8094 14.4894 29.9172 14.3148C30.0789 14.1402 30.618 13.6165 30.6719 13.5292C30.6719 13.5292 30.6719 13.5292 30.7797 13.4419C30.8875 13.4419 30.8875 13.4419 30.8875 13.4419C30.8875 13.1801 30.9414 13.0055 30.9414 13.0055H31.1031C31.157 13.0055 31.2109 12.8309 31.157 12.4818C31.157 12.4818 31.157 12.4818 31.5344 12.4818C31.5344 12.4818 31.5883 12.2199 31.6422 12.0454C31.6422 11.8708 31.6422 11.8708 31.6422 11.8708C31.6961 11.6962 32.1273 11.1725 32.5586 10.7361C32.5586 10.7361 32.5586 10.7361 32.8281 10.1251C32.882 10.0378 32.882 10.0378 32.882 10.0378C32.9898 9.95053 33.1515 9.86324 33.2054 9.68867C33.2593 9.5141 33.475 9.33953 33.475 9.33953C33.475 9.33953 33.6367 9.33953 33.6906 9.25224C33.4211 9.33953 33.5828 9.33953 33.7445 9.16496C33.9601 8.99039 33.9601 8.99039 33.9601 8.99039C34.1757 8.72853 34.4991 8.37939 34.7148 8.20482C34.7148 8.20482 34.7148 8.20482 34.9304 8.46668C34.9843 8.55396 34.9843 8.55396 34.9843 8.55396C35.146 8.46668 35.3077 8.2921 35.3616 8.20482C35.4155 8.11753 35.739 7.94296 36.0085 8.11753C36.278 8.2921 36.9249 8.64125 37.0327 8.64125C37.0327 8.64125 37.0327 8.64125 37.1944 8.55396C37.4639 8.46668 37.6256 8.03025 38.003 8.03025C38.3264 8.03025 38.3264 8.03025 38.3264 8.03025C38.6498 8.11753 38.9194 8.20482 39.0272 8.2921C39.0811 8.37939 39.4045 8.20482 39.5123 8.2921C39.6201 8.37939 39.8896 8.20482 39.9435 8.2921C39.9975 8.37939 40.2131 8.72853 40.3748 8.99039C40.4826 9.25224 40.8599 10.2124 40.8599 10.387C40.8599 10.5615 40.9138 10.9979 40.9677 10.9979C41.0216 10.9979 41.1834 11.0852 41.1834 11.4344C41.1834 11.6962 41.6685 12.3072 41.7224 12.5691C41.7224 12.5691 41.7224 12.5691 41.7224 12.8309C41.7224 12.9182 41.6685 13.0055 41.6685 13.0055C41.6685 13.1801 41.6685 13.1801 41.6685 13.1801C41.6685 13.3547 41.7763 13.5292 41.8302 13.7038C41.8302 13.7038 41.8302 13.7038 41.938 13.7911C42.2615 13.9657 42.2615 13.9656 42.2615 13.9656C42.3154 14.4021 42.4232 14.9258 42.4771 15.1004C42.531 15.3622 42.7466 15.8859 42.8005 15.7986C42.8544 15.7114 43.0161 15.5368 43.1239 15.5368C43.1239 15.5368 43.1239 15.5368 43.0161 15.3622C42.9622 15.2749 42.9622 15.2749 42.9622 15.2749C42.9622 15.1876 43.07 14.9258 43.2317 14.7512C43.3935 14.5766 43.6091 13.8784 43.7169 13.7038C43.8247 13.5292 44.202 13.0055 44.3638 12.8309C44.3638 12.8309 44.3638 12.8309 44.4177 12.4818C44.4177 12.3945 44.4177 12.3072 44.4716 12.3072C44.6872 12.2199 44.6872 12.2199 44.6872 12.2199C44.6872 11.9581 44.795 11.6962 44.8489 11.6089C44.9028 11.5217 45.0645 11.0852 45.0645 10.9979C45.0645 10.9107 45.2801 10.6488 45.4418 10.4742C45.6036 10.2997 45.8731 9.60139 45.927 9.60139C45.9809 9.60139 46.1965 9.42681 46.3043 9.42681C46.466 9.42681 46.3582 8.9031 46.466 8.9031C46.5738 8.9031 46.5739 8.2921 46.6278 8.11753C46.6817 7.94296 47.1129 7.68111 47.1668 7.59382C47.2207 7.50654 47.2746 7.33197 47.2746 7.1574C47.2746 6.98283 47.652 6.80825 47.7598 6.72097C47.8676 6.63368 47.9754 6.10997 48.191 5.9354C48.3527 5.76083 48.8918 5.3244 48.9996 5.23712C48.9996 5.06255 49.2152 4.97526 49.2691 4.97526C49.3769 4.88798 49.8081 5.06255 49.916 5.23712C50.0238 5.41169 50.5628 5.58626 50.6706 5.67355C50.7784 5.67355 51.1558 5.49897 51.3175 5.41169C51.4792 5.3244 51.9104 5.49897 51.8565 5.58626C51.8565 5.58626 51.8565 5.58626 51.8565 5.67355C51.8565 5.76083 51.8565 5.76083 51.8565 5.76083C51.9643 5.84812 52.2878 5.67355 52.5573 5.41169C52.5573 5.41169 52.5573 5.41169 52.8268 5.49897C53.2042 5.67355 53.6893 5.76083 53.851 6.45911C53.851 6.5464 53.851 6.5464 53.851 6.5464C53.851 6.63368 53.9049 6.98283 53.9049 7.24468C53.9049 7.24468 53.9049 7.24468 54.0666 7.41925C54.1744 7.50654 54.2823 7.59382 54.3362 7.68111C54.3362 7.68111 54.3362 7.85568 54.2823 7.94296C54.2283 8.03025 54.2283 8.03025 54.2283 8.03025C54.1205 8.03025 54.0666 8.20482 54.0666 8.37939C54.0666 8.37939 54.0666 8.37939 54.2823 8.46668C54.3901 8.55396 54.3901 8.55396 54.3901 8.55396C54.444 8.9031 54.5518 9.42681 54.6057 9.60139C54.6596 9.86324 54.8752 10.6488 54.983 10.8234C55.0908 10.9979 55.3604 11.5217 55.3064 11.5217C55.2525 11.5217 55.2525 11.6089 55.4682 11.6089C55.4682 11.6089 55.4682 11.6089 55.3604 11.8708C55.1986 12.2199 55.4682 12.2199 55.5221 12.3072C55.576 12.4818 55.576 12.4818 55.576 12.4818C55.6299 12.6564 55.7377 12.8309 55.7916 12.9182C55.8455 13.0055 56.0611 13.0055 56.115 12.9182C56.1689 12.9182 56.3845 12.5691 56.5463 12.3072C56.708 12.0454 57.0853 11.3471 57.1392 11.2598C57.1392 11.2598 57.1392 11.2598 57.1931 11.1725C57.247 10.9979 57.247 10.9979 57.247 10.9979C57.3548 10.9107 57.5166 10.7361 57.6244 10.5615C57.7322 10.4742 58.1095 10.0378 58.1634 9.95053C58.2173 9.86324 58.5407 9.42681 58.7025 9.42681C58.7025 9.42681 58.7025 9.42681 58.8642 9.42681C59.0798 9.42681 59.2954 9.42681 59.4032 9.07767C59.511 8.81582 59.511 8.81582 59.511 8.81582C59.7267 8.64125 59.8884 8.55396 59.9423 8.55396C59.9962 8.55396 60.104 8.46667 60.104 8.37939C60.104 8.2921 60.3735 7.94296 60.7508 7.68111C60.7508 7.68111 60.7508 7.68111 61.0204 7.33197C61.1282 7.24468 61.2899 7.24468 61.3438 6.98283C61.3438 6.98283 61.5055 6.98283 61.5594 6.98283C61.6672 6.98283 61.6672 6.98283 61.6672 6.98283C61.8289 7.07011 61.9368 7.07011 61.8829 6.98283C61.8289 6.89554 61.8829 6.80825 61.9907 6.80825C62.0985 6.80825 62.2602 6.37183 62.368 6.28454C62.4758 6.28454 62.7453 6.10997 62.7453 6.02269C62.7453 5.9354 63.0688 5.49897 63.1766 5.3244C63.2305 5.14983 63.6078 5.41169 63.6617 5.41169C63.6617 4.97526 63.6617 4.97526 63.6617 4.97526C63.8773 5.14983 64.1469 5.3244 64.2547 5.41169C64.2547 5.41169 64.2547 5.41169 64.3625 5.23712H64.4703C64.4703 5.67355 64.4703 5.67355 64.4703 5.67355C64.6859 5.67355 64.9554 5.76083 65.1171 5.9354C65.1171 5.9354 65.1171 5.9354 65.3328 6.02269C65.5484 6.10997 65.5484 6.10997 65.5484 6.10997C65.764 6.37183 66.0874 6.45911 66.1952 6.28454C66.357 6.10997 66.896 6.19726 66.9499 6.10997C66.9499 5.9354 66.9499 5.9354 66.9499 5.9354C67.0577 5.9354 67.1655 5.9354 67.1655 5.9354C67.2194 5.9354 67.489 5.84812 67.7585 5.76083C67.7585 5.76083 67.7585 5.76083 68.1358 5.76083C68.2436 5.76083 68.2436 5.76083 68.2436 5.76083C68.4053 5.67355 68.5671 5.67355 68.6749 5.76083C68.7288 5.84812 68.9444 5.58626 68.9983 5.67355C68.9983 5.67355 68.9983 5.67355 68.9983 5.76083C69.1061 6.28454 69.1061 6.28454 69.1061 6.28454C69.4834 6.37183 69.8608 6.45911 70.0225 6.45911C70.0225 6.45911 70.0225 6.45911 70.1303 6.5464C70.3459 6.63368 70.3459 6.63368 70.3459 6.63368C70.2381 6.80825 70.2381 7.07011 70.3459 7.33197C70.3459 7.33197 70.3459 7.33197 70.3998 7.59382C70.5076 7.85568 70.5076 7.85568 70.5076 7.85568C70.6154 8.11753 70.7772 8.55396 70.8311 8.64125C70.885 8.81582 71.1545 9.25224 71.2084 9.25224C71.2623 9.25224 71.424 9.5141 71.3162 9.5141C71.2623 9.60138 71.1006 9.77596 71.2084 9.86324C71.3162 9.86324 71.4779 10.0378 71.3701 10.2124C71.3701 10.2124 71.3701 10.2124 71.3701 10.387C71.3701 10.5615 71.4779 10.7361 71.4779 10.8234C71.4779 10.9979 71.4779 10.9979 71.4779 10.9979C71.4779 11.1725 71.5318 11.4344 71.5318 11.6089C71.5318 11.6089 71.5318 11.6089 71.5318 11.7835C71.4779 11.9581 71.4779 11.9581 71.4779 11.9581C71.5318 12.2199 71.6935 12.3072 71.8014 12.2199C71.9092 12.1327 72.1787 11.9581 72.2326 11.7835C72.2865 11.6089 72.5021 11.4344 72.6099 11.3471C72.7177 11.2598 72.9334 10.8234 73.0412 10.8234C73.149 10.8234 73.5263 10.7361 73.5263 10.6488C73.5263 10.5615 73.4724 10.2124 73.5263 10.0378C73.5802 9.86324 74.0115 9.5141 74.2271 9.33953C74.2271 9.33953 74.2271 9.33953 74.3888 9.33953C74.6583 9.33953 74.7661 9.16496 74.9278 8.99039C75.0896 8.9031 75.0896 8.9031 75.0896 8.9031C75.3052 8.81582 75.4669 8.72853 75.4669 8.72853C75.4669 8.64125 75.5208 8.55396 75.5747 8.46668C75.6286 8.37939 75.8442 8.03025 75.952 8.03025C75.952 8.03025 75.952 8.03025 76.0059 8.03025C76.0598 8.03025 76.0598 8.03025 76.0598 8.03025C76.1138 8.03025 76.1676 7.94296 76.1137 7.85568C76.1137 7.85568 76.1137 7.85568 76.1137 7.76839C76.1137 7.68111 76.1137 7.68111 76.1137 7.68111C76.1137 7.59382 76.2755 7.33197 76.4911 7.24468C76.4911 7.24468 76.4911 7.24468 76.6528 7.1574C76.8145 7.07011 76.9762 6.89554 77.084 6.72097C77.2458 6.45911 77.2458 6.45911 77.2458 6.45911C77.3536 6.5464 77.677 6.63368 77.9465 6.45911C77.9465 6.45911 77.9465 6.45911 78.0004 6.28454C78.1082 6.02269 78.1082 6.02269 78.1082 6.02269C78.2699 5.76083 78.5395 5.49897 78.6473 5.41169C78.7551 5.3244 78.9707 4.97526 79.0246 4.97526C79.0785 4.97526 79.1863 4.97526 79.1863 4.97526C79.1863 4.97526 79.2941 4.62612 79.348 4.53884C79.4019 4.45155 79.8332 4.01512 79.9949 3.66598C79.9949 3.66598 79.9949 3.66598 80.3183 3.66598C80.48 3.66598 80.48 3.66598 80.48 3.66598C80.48 3.31684 80.48 3.05499 80.5879 3.14227C80.6957 3.22956 80.8574 3.14227 80.8574 3.14227C80.9113 3.05499 80.8574 2.88042 80.8574 2.79313C80.8574 2.79313 80.9652 2.44399 81.073 2.26942C81.1808 2.00756 81.9355 1.92028 82.0433 1.83299C82.0433 1.83299 82.0433 1.83299 81.9894 1.57114C81.9894 1.48385 81.9894 1.48385 81.9894 1.48385C81.9894 1.39657 82.0433 1.39656 82.1511 1.39656C82.1511 1.39656 82.1511 1.39657 82.205 1.48385C82.2589 1.57114 82.205 1.65842 82.2589 1.74571C82.3128 1.83299 82.3128 1.83299 82.3128 1.83299C82.4206 1.83299 82.4745 1.74571 82.4206 1.65842C82.4206 1.65842 82.4206 1.65842 82.4206 1.57114C82.4206 1.30928 82.4206 1.30928 82.4206 1.30928C82.6362 1.22199 82.798 1.22199 82.8519 1.13471C82.9058 1.04742 82.9058 1.04742 82.8519 0.960138C82.798 0.960138 83.1214 0.698283 83.2831 0.698283C83.4448 0.698283 83.8761 0.261856 84.0378 0.261856C84.0378 0.261856 84.0378 0.261856 84.1456 0.261856C84.1995 0.261856 84.1995 0.261856 84.1995 0.261856C84.2534 0.0872853 84.3612 0 84.4151 0C84.469 0.0872853 84.7385 0.261856 84.8463 0.261856C84.8463 0.261856 84.8463 0.261856 84.8463 0.523712C84.8463 0.610997 84.8463 0.610997 84.8463 0.610997C85.1159 0.698283 85.4393 0.785568 85.5471 0.872853C85.6549 0.960138 86.0322 1.22199 86.194 1.04742C86.194 1.04742 86.194 1.04742 86.3557 0.960138C86.5174 0.872853 86.5174 0.872853 86.5174 0.872853C86.6791 0.785568 86.8947 0.698283 87.0025 0.698283C87.1104 0.698283 87.4338 0.698282 87.5955 0.872853C87.5955 0.872853 87.5955 0.872853 87.7572 0.610997C87.8111 0.523712 87.8111 0.523712 87.8111 0.523712C87.9728 0.523712 88.1345 0.523712 88.2424 0.523712C88.2963 0.436427 88.5119 0.523712 88.5119 0.785568C88.5119 0.960138 88.5119 1.13471 88.5658 1.22199C88.5658 1.22199 88.5658 1.22199 88.6197 1.22199C88.7814 1.13471 88.7814 1.13471 88.7814 1.13471C88.9431 1.04742 89.2126 1.22199 89.2666 1.48385C89.2666 1.48385 89.2665 1.48385 89.4822 1.39656C89.5361 1.48385 89.59 1.74571 89.6978 1.83299C89.7517 2.00756 89.9134 2.18213 89.8056 2.18213C89.6978 2.18213 89.9134 2.9677 90.0751 3.40413C90.0751 3.40413 90.0751 3.40413 90.2368 3.75327C90.5603 4.36427 90.5603 4.36427 90.5603 4.36427C90.2368 4.71341 90.0751 5.06255 90.1829 5.23712C90.2907 5.41169 90.5064 5.84812 90.5603 5.9354C90.6142 6.02269 90.6142 6.37183 90.6681 6.80825C90.722 7.24468 90.9376 8.20482 90.8837 8.2921C90.8837 8.37939 90.9915 8.55396 91.0993 8.55396C91.0993 8.55396 91.0993 8.55396 91.0993 8.64125C91.1532 8.72853 91.1532 8.72853 91.1532 8.72853C91.1532 8.9031 91.0993 9.25224 91.0454 9.42681C90.9915 9.60139 91.3149 10.2124 91.3688 10.387C91.4227 10.5615 91.5845 11.2598 91.6384 11.5217C91.6923 11.7835 92.2313 11.6089 92.2313 11.6962C92.3391 11.8708 92.3391 11.8708 92.3391 11.8708C92.4469 11.9581 92.4469 12.2199 92.3391 12.4818C92.2313 12.7437 92.1235 13.5292 92.0696 13.8784C92.0696 13.8784 92.0696 13.8784 91.9618 14.0529C91.8001 14.3148 91.8001 14.3148 91.8001 14.3148C91.854 14.5766 91.854 14.9258 91.7462 15.1876C91.7462 15.1876 91.7462 15.1876 91.6923 15.4495C91.6923 15.5368 91.6923 15.5368 91.6923 15.5368C91.7462 15.6241 91.854 15.7114 91.9618 15.6241C91.9618 15.6241 91.9618 15.6241 92.0157 15.5368C92.0696 15.4495 92.0696 15.4495 92.0696 15.4495C92.1235 15.2749 92.4469 15.0131 92.7165 14.8385C92.7165 14.8385 92.7165 14.8385 92.8782 14.4021C93.0399 14.0529 93.0399 14.0529 93.0399 14.0529C93.3633 13.7911 93.6868 13.5292 93.7946 13.3547C93.9024 13.1801 94.3336 13.0055 94.4953 13.1801C94.6031 13.2674 94.9805 13.6165 94.9266 13.7038C94.8727 13.7911 94.7648 13.7911 94.7109 13.7038C94.6031 13.7038 94.6031 13.8784 94.7109 13.8784C94.7109 13.8784 94.7109 13.8784 94.8727 14.0529C95.0883 14.4021 95.0883 14.4021 95.0883 14.4021C95.3578 14.1402 95.789 13.7038 96.0586 13.5292C96.0586 13.5292 96.0586 13.5292 96.2203 13.7038C96.4359 13.8784 96.4359 13.8784 96.4359 13.8784C96.6515 13.8784 96.8671 13.9657 97.0289 14.0529C97.1367 14.1402 97.1906 14.9258 97.1367 15.1004C97.0828 15.2749 97.514 15.6241 97.5679 15.7114C97.6218 15.7986 97.6757 16.0605 97.7296 16.4096C97.7296 16.4096 97.7296 16.4096 97.8374 16.6715C97.8913 16.8461 97.8913 16.8461 97.8913 16.8461C97.6757 17.1952 97.6218 17.5443 97.7835 17.5443C97.9452 17.5443 98.107 18.1553 98.1609 18.3299C98.2148 18.4172 98.3226 19.0282 98.3765 19.2901C98.4304 19.5519 98.8616 20.1629 98.9694 20.2502C99.0233 20.3375 99.2929 21.0358 99.3468 21.123C99.3468 21.123 99.3468 21.123 99.4007 21.123C99.5085 21.0358 99.5624 20.8612 99.6163 20.7739C99.6702 20.5993 99.6702 20.5993 99.6702 20.5993C99.7241 20.4248 99.8319 20.2502 99.8858 20.1629C99.9397 20.1629 100.155 19.9011 100.155 19.8138C100.155 19.7265 100.371 19.5519 100.479 19.5519C100.587 19.5519 100.856 19.3773 100.856 19.1155C100.856 19.1155 100.856 19.1155 100.91 19.0282C100.964 18.9409 100.964 18.9409 100.964 18.9409C101.126 18.9409 101.233 18.8536 101.233 18.8536C101.233 18.7663 101.287 18.5918 101.449 18.5045C101.557 18.4172 101.772 18.0681 101.826 18.0681C101.88 18.0681 102.096 17.9808 102.204 17.8935C102.312 17.8062 102.527 17.4571 102.581 17.5443C102.635 17.6316 102.797 17.1952 102.797 17.1079C102.797 17.1079 102.797 17.1079 102.904 17.1952C102.904 17.1952 103.066 17.0206 103.12 16.9334C103.174 16.8461 103.174 16.8461 103.174 16.8461C103.228 16.6715 103.39 16.5842 103.551 16.5842C103.713 16.5842 104.198 15.8859 104.414 15.6241C104.414 15.6241 104.414 15.6241 104.629 15.4495C104.737 15.3622 104.737 15.3622 104.737 15.3622C104.845 15.2749 105.007 15.1876 105.115 15.1876C105.222 15.1876 105.438 14.7512 105.438 14.7512C105.492 14.6639 105.654 14.5766 105.708 14.6639C105.761 14.7512 106.085 14.5766 106.3 14.4021C106.3 14.4021 106.301 14.4021 106.462 14.1402C106.678 13.8784 106.893 13.7911 107.163 13.7038C107.54 13.6165 107.756 13.7038 107.864 14.1402C107.918 14.3148 108.025 14.3148 108.133 14.2275C108.187 14.1402 108.187 14.1402 108.187 14.1402C108.295 14.1402 108.457 14.1402 108.511 14.2275C108.565 14.3148 108.888 14.1402 109.05 14.2275C109.05 14.2275 109.05 14.2275 109.211 14.1402C109.373 14.0529 109.481 14.3148 109.589 14.4894C109.75 14.6639 109.75 14.7512 109.589 14.9258C109.643 15.1004 109.804 15.1004 109.966 15.1004C110.128 15.1004 110.02 15.6241 110.128 15.7986C110.128 15.7986 110.128 15.7986 110.128 15.9732C110.128 16.4096 110.128 16.4096 110.128 16.4096C110.343 16.7588 110.505 17.1079 110.397 17.1079C110.289 17.1079 110.236 17.4571 110.397 17.8935C110.397 17.8935 110.397 17.8935 110.559 18.2426C110.613 18.3299 110.613 18.3299 110.613 18.3299C110.829 18.3299 110.99 18.4172 110.936 18.5918C110.936 18.7663 110.99 19.2901 111.152 19.5519C111.314 19.8138 111.691 20.6866 111.583 21.0358C111.475 21.2976 110.99 22.1705 110.99 22.4323C110.99 22.4323 110.99 22.4323 111.152 22.6069C111.206 22.6069 111.206 22.6069 111.206 22.6069C111.314 22.5196 111.421 22.6069 111.421 22.7815C111.421 22.956 111.529 23.3052 111.637 23.2179C111.745 23.1306 111.745 22.6942 111.799 22.6069C111.853 22.5196 111.907 21.9959 112.068 21.9086C112.176 21.734 112.607 21.4722 112.607 21.5595C112.607 21.6468 112.823 21.6468 112.931 21.3849C112.931 21.3849 112.931 21.3849 113.039 21.2103C113.093 21.123 113.093 21.123 113.093 21.123C113.146 21.0358 113.2 20.9485 113.2 20.9485C113.254 20.9485 113.362 20.8612 113.416 20.6866C113.793 20.7739 113.793 20.7739 113.793 20.7739C114.171 20.5121 114.548 20.2502 114.656 20.2502C114.764 20.2502 114.979 19.9883 115.141 19.8138C115.303 19.6392 115.626 19.4646 115.572 19.6392C115.464 19.8138 115.357 20.2502 115.41 20.3375C115.464 20.4248 115.734 20.5993 115.842 20.512C115.949 20.4248 115.842 19.9883 116.057 19.9011C116.273 19.8138 116.758 19.2901 116.596 19.3773C116.435 19.4646 115.949 19.4646 115.949 19.3773C115.949 19.2901 116.057 19.2028 116.273 19.4646C116.273 19.4646 116.273 19.4646 116.381 18.9409C116.381 18.8536 116.381 18.8536 116.381 18.8536C116.489 18.7663 116.596 18.8536 116.65 19.0282C116.65 19.0282 116.65 19.0282 116.704 19.1155C116.758 19.2028 116.758 19.2028 116.758 19.2028C116.866 19.1155 116.974 19.2028 117.028 19.3773C117.028 19.3773 117.028 19.3773 117.135 19.2901C117.243 19.2028 117.243 19.0282 117.135 18.9409C117.081 18.8536 117.081 18.8536 117.081 18.8536C117.081 18.7663 117.297 18.6791 117.621 18.5918C117.944 18.5918 118.914 19.0282 119.184 18.9409C119.399 18.8536 120.154 19.1155 120.208 19.2901C120.208 19.2901 120.208 19.2901 120.424 19.1155C120.585 19.0282 120.639 19.2901 120.531 19.3773C120.262 19.7265 120.262 19.7265 120.262 19.7265C120.478 19.8138 120.801 20.0756 121.017 20.3375C121.017 20.3375 121.017 20.3375 121.124 20.5993C121.178 20.7739 121.178 20.7739 121.178 20.7739C121.232 21.0358 121.178 21.2103 121.124 21.123C121.07 21.123 120.855 21.0358 120.747 21.0358C120.747 21.0358 120.747 21.0358 120.639 21.0358C120.639 21.0358 120.585 21.2103 120.639 21.2103C120.693 21.2976 120.801 21.2976 120.855 21.3849C120.909 21.3849 120.909 21.3849 120.909 21.3849C120.963 21.3849 120.963 21.4722 120.909 21.5595C120.855 21.6468 121.124 22.0832 121.286 22.1705C121.448 22.2578 121.609 22.8688 121.663 22.8688C121.717 22.8688 121.771 22.956 121.663 23.0433C121.556 23.1306 121.394 23.4798 121.556 23.4798C121.717 23.567 122.041 23.7416 121.987 23.9162C121.933 24.0035 121.771 24.3526 121.61 24.178C121.448 24.0907 121.017 24.4399 120.909 24.5272C120.909 24.5272 120.909 24.5272 120.909 24.6145C120.909 24.9636 120.801 25.1382 120.531 25.2255C120.478 25.2255 120.478 25.2255 120.478 25.2255C120.478 25.4 120.531 25.4873 120.585 25.5746C120.585 25.5746 120.585 25.5746 120.639 25.5746C120.747 25.5746 120.855 25.4873 120.963 25.4873C121.017 25.4873 121.07 25.5746 121.07 25.6619C121.07 25.7492 121.07 25.7492 121.07 25.7492C121.017 25.8365 120.855 25.9237 120.693 26.011C120.531 26.0983 120.046 25.8365 120.046 25.7492C120.046 25.7492 120.046 25.7492 119.992 25.7492C119.938 25.7492 119.831 25.8365 119.777 25.8365C119.777 25.8365 119.777 26.011 119.831 26.0983C119.885 26.1856 119.992 26.1856 120.046 26.2729C120.1 26.3602 120.1 26.3602 120.1 26.3602C120.154 26.5347 120.37 26.5347 120.531 26.4475C120.693 26.3602 121.286 26.2729 121.394 26.1856C121.502 26.0983 122.041 25.8365 122.202 25.7492C122.202 25.7492 122.202 25.7492 122.256 25.8365C122.418 26.011 122.418 26.011 122.418 26.011C122.634 26.011 122.795 26.011 122.849 26.0983C122.903 26.0983 123.011 26.2729 123.065 26.2729C123.065 26.3602 123.173 26.0983 123.065 25.8365C123.065 25.8365 123.065 25.8365 122.849 25.7492C122.795 25.7492 122.795 25.7492 122.795 25.7492C122.795 25.6619 122.849 25.4873 122.903 25.4873C122.903 25.4873 122.903 25.4873 122.957 25.4873C123.011 25.4873 123.011 25.4873 123.011 25.4873C123.065 25.4873 123.119 25.4 123.119 25.2255C123.119 25.0509 123.712 25.0509 123.874 25.0509C123.874 25.0509 123.874 25.0509 124.035 24.9636C124.089 24.9636 124.089 24.789 124.089 24.7017C124.089 24.6145 123.981 24.6145 123.927 24.6145C123.874 24.6145 123.874 24.7017 123.82 24.7017C123.766 24.7017 123.766 24.7017 123.766 24.7017C123.712 24.7017 123.712 24.6145 123.712 24.4399C123.927 24.5272 124.197 24.178 124.251 24.7017C124.251 24.789 124.251 24.789 124.251 24.789C124.466 24.7017 124.628 24.7017 124.52 24.6145C124.466 24.6145 124.251 24.3526 124.413 24.2653C124.574 24.178 124.79 24.0907 124.79 24.2653C124.79 24.4399 124.844 24.789 124.898 24.7017C124.952 24.7017 125.113 24.789 125.113 25.0509C125.113 25.0509 125.113 25.0509 124.898 25.2255C124.79 25.3127 124.736 25.4 124.628 25.5746C124.574 25.6619 124.574 25.7492 124.628 25.8365C124.682 25.9237 124.736 25.9237 124.79 25.9237C124.898 25.9237 124.952 25.7492 125.006 25.7492C125.113 25.6619 125.275 25.7492 125.437 25.6619C125.706 25.4873 125.437 25.3127 125.437 25.1382C125.437 25.0509 125.437 25.0509 125.437 25.0509C126.138 24.0907 126.569 24.0907 126.677 24.0907ZM113.901 20.6866C113.739 20.6866 113.632 20.6866 113.578 20.7739C113.524 20.8612 113.416 21.0358 113.416 21.123C113.362 21.123 112.931 21.2103 112.877 21.2976C112.877 21.2976 112.877 21.2976 112.877 21.3849C112.877 21.4722 112.931 21.6468 112.931 21.6468C113.2 21.6468 113.2 21.6468 113.2 21.6468C113.093 21.8213 113.039 21.9959 113.039 21.9959C113.039 22.0832 113.146 22.1705 113.254 22.0832C113.254 22.0832 113.254 22.0832 113.308 21.9959C113.416 21.8213 113.524 21.4722 113.578 21.4722C114.009 21.4722 114.009 21.4722 114.009 21.4722C114.278 21.0358 114.494 20.6866 114.494 20.5993C114.494 20.5993 114.494 20.5993 114.494 20.512C114.386 20.4248 114.009 20.7739 113.901 20.6866ZM72.5021 40.2385C72.3943 40.1512 72.2326 40.5004 72.0709 40.9368C72.0709 40.9368 72.0709 40.9368 71.6396 40.9368C71.5857 40.9368 71.5318 41.0241 71.4779 41.1114C71.424 41.1987 71.424 41.1987 71.424 41.1987C71.3701 41.286 71.424 41.4605 71.4779 41.4605C71.5318 41.4605 71.6936 41.4605 71.7475 41.3732C71.8014 41.286 72.1248 41.0241 72.2865 40.9368C72.4482 40.7622 72.6099 40.3258 72.5021 40.2385ZM120.208 18.4172C119.992 18.5918 119.885 18.8536 119.992 18.9409C120.1 19.0282 120.37 19.3773 120.478 19.3773C120.478 19.3773 120.478 19.3773 120.531 19.3773C120.585 19.2901 120.585 19.2901 120.585 19.2901C120.585 19.2028 120.531 18.9409 120.478 18.7663C120.478 18.7663 120.477 18.7663 120.424 18.5918C120.208 18.4172 120.208 18.4172 120.208 18.4172ZM70.7772 41.1114C70.7233 41.1987 70.7233 41.3732 70.7772 41.4605C70.8311 41.5478 71.1006 41.7224 71.1545 41.5478C71.2623 41.4605 70.885 41.0241 70.7772 41.1114ZM115.464 19.7265C115.464 19.6392 115.41 19.4646 115.357 19.3773C115.357 19.3773 115.357 19.3773 115.303 19.3773C115.141 19.4646 115.141 19.4646 115.141 19.4646C114.979 19.5519 114.817 19.7265 114.817 19.8138C114.817 19.9011 114.817 20.0756 114.871 20.0756C114.925 20.0756 115.195 19.9011 115.249 19.7265C115.303 19.8138 115.303 19.8138 115.464 19.7265Z" fill="#FFCB00"/>
</g>
<defs>
<clipPath id="clip0_713_486">
<rect width="127" height="53" fill="white"/>
</clipPath>
</defs>
</svg>
