<svg width="228" height="16" viewBox="0 0 228 16" fill="none" xmlns="http://www.w3.org/2000/svg">
<g clip-path="url(#clip0_749_105)">
<path d="M110.003 6.50018C93.3203 2.00018 79.2441 -2.66648 61.8661 2.00018C53.3508 4.16685 45.3569 7.50018 36.8417 9.50018C25.0246 12.3335 14.2502 11.1668 2.60692 8.66685C-0.173565 8.16685 -1.04247 11.6668 1.39046 12.6668C18.2472 19.1668 35.799 15.0002 52.1344 9.83352C61.3447 6.83352 71.0764 3.66685 80.9819 4.16685C91.0612 4.83352 100.445 8.66685 110.177 11.0002C128.772 15.3335 144.412 8.00018 162.485 5.66685C184.034 2.66685 205.235 6.00018 226.61 8.16685C228.174 8.33352 228.522 5.83352 226.958 5.50018C208.537 2.33352 189.073 0.166848 170.305 1.33352C149.451 2.83352 130.857 12.0002 110.003 6.50018Z" fill="#745BA3"/>
</g>
<defs>
<clipPath id="clip0_749_105">
<rect width="16" height="228" fill="white" transform="matrix(0 -1 1 0 0 16)"/>
</clipPath>
</defs>
</svg>
